<svg width="72" height="120" viewBox="0 0 72 120" fill="none" xmlns="http://www.w3.org/2000/svg">
<path fill-rule="evenodd" clip-rule="evenodd" d="M50.6384 102.072C48.8347 99.9452 47.0736 97.4709 47.157 94.6703C47.1804 94.0599 47.3759 93.4689 47.7208 92.9664C48.3012 92.1217 49.3957 91.6762 49.852 90.7565C50.2166 90.0201 49.8761 89.1012 50.0388 88.2947C50.2042 87.4771 50.8534 87.5694 51.4806 87.7901C52.01 87.9775 52.4366 88.4314 52.9859 88.548C53.8647 88.7327 54.811 88.9062 55.6809 88.6744C56.845 88.3627 57.9974 87.8012 58.8769 86.9704C59.4365 86.4402 59.411 85.5157 59.7543 84.8244C60.1706 83.9853 60.5069 84.1331 61.3209 84.3823C62.8221 84.8418 63.7188 85.4095 65.3943 85.0763C67.1808 84.721 70.3196 83.589 70.4664 81.3867C70.4761 81.2486 70.4774 81.1091 70.4705 80.9745C70.4506 80.4824 70.3251 79.9237 69.9695 79.585C69.1024 78.7597 67.9486 78.3037 66.9609 77.6291C66.0684 77.0204 65.1586 76.4291 64.3294 75.735C63.6698 75.1846 62.9523 74.6453 62.5119 73.9048C62.0432 73.1198 63.0488 72.4174 63.7022 72.3272C65.9988 72.0072 67.7529 72.5715 69.9943 71.3173C71.0081 70.751 71.7822 69.882 71.8504 68.4939C71.8911 67.7006 71.2928 66.9024 70.8475 66.3319C70.4195 65.7843 69.2768 65.1714 69.3319 64.3788C69.4098 63.2621 72.0124 62.4688 72 60.8801C71.9944 60.322 71.7429 59.3337 70.973 58.3801C70.3541 57.6124 69.4842 57.0787 68.6537 56.5498C67.8246 56.0217 66.9134 55.6365 66.0222 55.2242C64.9077 54.7099 63.7381 54.3177 62.638 53.7729C62.4519 53.6813 62.261 53.5293 62.199 53.3308C62.1225 53.0893 62.2555 52.8269 62.261 52.5736C62.2755 52.0058 62.4278 51.4124 62.261 50.8697C61.6958 49.0172 60.0396 48.6417 58.5012 47.8401C57.6045 47.3737 56.6706 46.9746 55.8063 46.452C55.0998 46.0251 54.3644 45.6045 53.8006 45C53.141 44.2935 55.3163 43.7618 55.6181 43.5487C56.4824 42.9386 58.1221 41.647 57.9374 40.3928C57.8499 39.8043 57.4301 39.283 56.9966 38.8784C55.1508 37.1544 52.7888 36.1695 51.391 33.7569C51.2739 33.5543 51.3132 33.3377 51.3387 33.1115C51.4972 31.7053 53.1465 32.407 54.1763 32.2515C54.8765 32.146 55.7415 32.1141 56.1819 31.5575C56.6851 30.9217 56.7299 29.9646 56.621 29.1588C56.4907 28.1871 56.0489 27.2501 55.4927 26.445C53.7923 23.9853 51.7708 23.911 49.4308 22.5229C49.1131 22.3341 48.7657 21.79 48.5989 21.4589C48.2357 20.7419 48.1199 19.9174 47.7829 19.1866C47.5933 18.7736 47.3535 18.3697 47.0316 18.0504C46.1528 17.1821 45.0893 16.5193 44.2099 15.6524C43.9907 15.4352 43.7212 15.1381 43.7722 14.8313C43.8625 14.283 44.5338 13.9332 44.5869 13.3801C44.8453 10.6059 42.8679 8.67851 40.3763 6.56163C39.0488 5.43309 38.4327 3.83051 37.7551 2.77693C37.0659 1.70391 36.3767 0 35.9997 0C35.624 0 34.9348 1.70391 34.2449 2.77693C33.568 3.83051 32.9518 5.43309 31.6237 6.56163C29.1321 8.67782 27.1554 10.6059 27.4138 13.3801C27.4655 13.9332 28.1382 14.2837 28.2285 14.8313C28.2788 15.1374 28.01 15.4345 27.7894 15.6524C26.9114 16.52 25.8472 17.1821 24.9691 18.0504C24.6472 18.3697 24.4074 18.7736 24.2171 19.1866C23.8815 19.9174 23.7657 20.7419 23.4018 21.4589C23.2343 21.79 22.8876 22.3334 22.5698 22.5229C20.2292 23.911 18.2083 23.9853 16.508 26.445C15.9518 27.2494 15.5107 28.1871 15.3797 29.1588C15.2708 29.9646 15.3156 30.9217 15.8181 31.5575C16.2585 32.1148 17.1249 32.1467 17.8238 32.2515C18.8542 32.407 20.5035 31.7053 20.662 33.1115C20.6875 33.3384 20.7261 33.5543 20.6083 33.7569C19.2126 36.1695 16.8492 37.1544 15.0034 38.8784C14.5699 39.283 14.1501 39.8043 14.0633 40.3928C13.8779 41.647 15.5182 42.938 16.3819 43.5487C16.6837 43.7618 18.859 44.2935 18.1994 45C17.6363 45.6045 16.9002 46.0251 16.1937 46.452C15.3287 46.9746 14.3948 47.3737 13.4988 47.8401C11.9597 48.6417 10.3042 49.0172 9.73829 50.8697C9.57219 51.4124 9.72382 52.0058 9.73829 52.5736C9.7445 52.8269 9.87683 53.0893 9.80102 53.3308C9.73898 53.5293 9.54806 53.6806 9.36197 53.7729C8.26195 54.3177 7.09231 54.7099 5.97781 55.2242C5.08593 55.6358 4.17407 56.021 3.34561 56.5498C2.51576 57.0787 1.64595 57.6124 1.02701 58.3801C0.257131 59.3344 0.00486889 60.322 4.42252e-05 60.8801C-0.0123621 62.4688 2.58951 63.2621 2.6674 64.3788C2.72254 65.1721 1.58047 65.7843 1.15245 66.3319C0.706514 66.9024 0.108944 67.7013 0.148919 68.4939C0.217843 69.882 0.992548 70.751 2.00504 71.3173C4.24713 72.5715 6.00056 72.0072 8.2971 72.3272C8.95118 72.4181 9.95609 73.1205 9.4881 73.9048C9.04768 74.6446 8.32949 75.1846 7.67058 75.735C6.84143 76.4291 5.93094 77.0204 5.03838 77.6291C4.05001 78.3044 2.89691 78.7597 2.02985 79.585C1.67489 79.9237 1.54945 80.4824 1.52809 80.9745C1.52257 81.1084 1.52326 81.2486 1.53222 81.3867C1.67972 83.5897 4.81782 84.7217 6.60433 85.0763C8.28055 85.4095 9.17656 84.8418 10.6784 84.3823C11.4917 84.1331 11.8288 83.9853 12.2451 84.8244C12.589 85.5157 12.5621 86.4402 13.1225 86.9704C14.0012 87.8012 15.1536 88.3627 16.3191 88.6744C17.1883 88.9062 18.1339 88.7327 19.0141 88.548C19.5627 88.4314 19.9893 87.9775 20.5187 87.7901C21.1459 87.5694 21.7951 87.4771 21.9606 88.2947C22.1239 89.1012 21.7827 90.0201 22.148 90.7565C22.6043 91.6755 23.6981 92.1217 24.2792 92.9664C24.6183 93.4585 24.8257 94.0714 24.843 94.6703C24.9257 97.4709 23.1654 99.9452 21.3616 102.072H14.7725C14.1821 102.073 13.6164 102.31 13.1989 102.731C12.7814 103.151 12.546 103.72 12.5442 104.315V117.757C12.546 118.351 12.7814 118.921 13.1989 119.341C13.6164 119.762 14.1821 119.998 14.7725 120H57.2268C57.8171 119.998 58.3826 119.761 58.8 119.341C59.2173 118.921 59.4526 118.351 59.4544 117.757V104.315C59.4526 103.721 59.2173 103.151 58.8 102.731C58.3826 102.311 57.8171 102.074 57.2268 102.072H50.6384Z" fill="#8A8A8A"/>
</svg>
