<svg width="120" height="120" viewBox="0 0 120 120" fill="none" xmlns="http://www.w3.org/2000/svg">
<path d="M67.0604 4.78784C64.4144 -1.59595 55.5886 -1.59595 52.9396 4.78784L49.1461 13.9542C42.6677 29.5884 30.5779 42.0726 15.3816 48.8282L4.61469 53.6168C-1.53823 56.3574 -1.53823 65.3109 4.61469 68.053L16.0115 73.119C30.8284 79.7052 42.7142 91.7441 49.3066 106.865L52.9981 115.344C55.7055 121.552 64.296 121.552 67.0019 115.344L70.7084 106.865C77.3008 91.7456 89.1731 79.7037 103.988 73.119L115.385 68.053C121.538 65.3109 121.538 56.3574 115.385 53.6168L104.618 48.8282C89.4221 42.0726 77.3338 29.5884 70.8539 13.9542L67.0604 4.78784Z" fill="#8A8A8A"/>
</svg>
